<svg width="32" height="32" viewBox="0 0 32 32" fill="none" xmlns="http://www.w3.org/2000/svg">
<path fill-rule="evenodd" clip-rule="evenodd" d="M6.74235 2.02086C9.3433 1.69689 12.467 5.26495 15.9141 5.26495C19.3611 5.26485 23.2763 2.02114 25.244 2.02086C27.2117 2.02087 31.5891 6.64361 31.9851 14.591C32.381 22.5386 24.8253 29.9999 15.9932 29.9999C7.16103 29.9999 -0.109398 23.3732 0.0012464 14.591C0.0720367 8.99059 4.14139 2.3453 6.74235 2.02086ZM26.7069 15.881C26.219 14.014 24.5316 12.8555 22.9384 13.2931C21.6249 13.654 20.7857 14.9872 20.8046 16.4904C18.887 17.0155 17.2617 17.2745 15.6992 17.2784C14.4486 17.2815 13.2181 17.1204 11.8907 16.7853C12.0315 15.1645 11.1704 13.6775 9.7716 13.2931C8.17835 12.8555 6.49101 14.0139 6.0031 15.881C5.51521 17.7481 6.41175 19.617 8.00503 20.0548C9.29269 20.4083 10.6407 19.7182 11.3683 18.4552C12.8498 18.8381 14.2551 19.032 15.7031 19.0284C17.4375 19.0241 19.2027 18.7372 21.2021 18.1925C21.886 19.6212 23.3303 20.4323 24.705 20.0548C26.2982 19.617 27.1947 17.7481 26.7069 15.881Z" fill="#3E74EA"/>
</svg>
